<?xml version="1.0" encoding="UTF-8"?>
<svg id="Calque_2" data-name="Calque 2" xmlns="http://www.w3.org/2000/svg" viewBox="0 0 736.5 378.21">
  <defs>
    <style>
      .cls-1 {
        fill: #d34100;
        opacity: .65;
      }

      .cls-2 {
        fill: #9b1200;
        opacity: .35;
      }

      .cls-3 {
        fill: #841900;
        opacity: .2;
      }

      .cls-4 {
        fill: #8e0000;
      }

      .cls-5 {
        fill: #ff7300;
        opacity: .8;
      }

      .cls-6 {
        fill: none;
        stroke: #000;
        stroke-miterlimit: 10;
        stroke-width: 5px;
      }
    </style>
  </defs>
  <g id="Calque_1-2" data-name="Calque 1">
    <g>
      <rect class="cls-3" x="0" y="71.36" width="229.25" height="212.35"/>
      <rect class="cls-2" x="29.56" y="39.51" width="229.25" height="212.35" rx="8.24" ry="8.24"/>
      <rect class="cls-1" x="56.69" y="15.8" width="229.25" height="212.35" rx="50.46" ry="50.46"/>
      <g>
        <path d="m345.66,58.43c0,.17-.27.25-.37.42-.09,0-.09-.08-.27-.08,0,.25-.18.25-.18.25-.27,0-.73.08-.91.17-3.57,1.86-9.05,2.63-13.07,2.63-2.29,0-4.57-.25-5.12-.25-3.02-.42-7.22-3.13-7.77-5.93-.73-2.03-.55-3.81-.64-5.59,0-.17.18-.34.18-.59,0-.59-.09-1.27-.09-1.95,0-11.35,5.39-37.18,8.69-42.94.37-.68,1.1-1.19,1.46-1.69.46-.34,2.47-.68,3.11-.68.09,0,.18,0,.27-.08.55,0,.91-.25,1.37-.34.27,0,.55-.25,1.01-.25h2.29c.37.08.91.42,1.37.42.18,0,.37-.08.46-.17.18.08.37.08.73.08.27,0,.64.25,1.1.25h.37c.18.08.37.25.82.25,0,.17.09.17.37.25,1.37.25,1.74,1.19,1.74,2.29,0,1.35-.55,2.88-.73,3.73-1.28,6.1-3.47,11.77-4.75,17.53-2.1,7.37-5.58,20.41-5.58,27.61v.76c.09,1.86,2.01,2.12,3.75,2.12,4.02-.08,7.31-.51,10.7-.68,1.01-.08,2.29-.17,3.57-.17.73,0,1.46,0,2.19.17-.18,0-.37.08-.73.08.18.08.27.17.27.17,0,.08-.46,0-.46.25-.55,0-.73.17-1.19.17l.18.25c-.09,0-.46.08-.37.08-.37,0-.46.17-1.1.25-.09,0-.18,0-.18.17,0,.08-.64.25-.55.34-.46.08-1.37.25-1.37.59l-.55.08Z"/>
        <path d="m378.67,40.56c-.27.34-.27,1.19-.64,1.1-.18.25-.46,1.27-.82,1.27-.91.51-.73,2.79-1.1,3.13-1.46,1.69-5.94,6.94-12.89,8.38-.46.17-1.01.17-1.28.17-.91,0-1.28-.51-2.1-.51-.27,0-.82-.17-1.1-.17-.09,0,0,.17-.18.17-.09-.17-.27-.17-.55-.17h-.37c-.55-.25-1.19-.34-1.74-.51.73.68,1.92.76,3.02.76,0,0,.73.08,1.01.25-.91,0-2.56-.17-3.75-.51.18.17.64.25.73.42-.64-.17-.91-.08-1.19-.25-.18-.17-1.74-.85-1.83-.85v.42c-3.38-2.79-4.94-6.35-4.94-10.08,0-7.2,7.59-17.78,16.55-17.78,1.74,0,1.74.93,3.02,1.52,0-.08-.09-.17-.09-.25.09-.08.18-.08.27-.08.55,0,.46,1.27.64,1.69.18.68,1.19,1.44,1.19,3.64,0,2.71-2.01,8.3-10.51,8.3-1.28,0-2.56-.17-3.57-.34-.37,1.02-.55,1.95-.55,2.71,0,3.3,2.47,5,5.94,5,8.59,0,17.65-12.45,19.75-15.41l.73-.85c.27-.25.46-.34.55-.34.27,0,.27.42.73.59-.18.17-.46.59-.46.85v.34c0,.34-.09.93-.55,1.35,0-.17.09-.51.09-.59-.18,0-.18.25-1.83,3.3.82-.59,1.55-2.03,1.55-1.86,0,.25-.27.34-.27.59.64-.59.73-1.19,1.28-2.46.09,0,.09.25.09.25,0,.42.09.25.09.51,0,.34-.18.68-.18.93,0,2.03-3.93,6.94-6.67,10.08,0,0-.09-.17-.09-.42,0-.51.18-1.44.46-1.61,0,0,.27.08.27.25,1.37-1.69,3.29-4.15,4.11-5.76l.55-.51c.18-.17.27-.68.37-.93-.37.42-1.55,1.35-1.55,2.03,0,.51-.82.68-1.83,2.46-.09,0-.18-.25-.18-.34-.09,0-.18.08-.18.08Zm-17.28-9.4c-1.55,1.61-3.02,3.64-3.75,5.59,1.37-.93,7.59-3.64,8.5-7.11-.27-.08-.55-.08-.91-.08-1.46,0-2.83.85-3.84,1.61Zm2.1-4.49c-1.01.17-1.83.68-2.38,1.19,1.19-.76,2.74-1.35,4.3-1.35-.18-.08-.27-.08-.37-.08-.18.08-.27.08-.46.08-.09-.08-.18-.08-.27-.08-.27,0-.82.17-.82.25Zm1.28.17h-.46c-.18,0-.27-.08-.27-.17-.27.08-1.55.42-2.01.85.55-.08,1.1-.25,1.55-.51.27,0,.46.08.64.08s.55-.17.55-.25Zm-.18-.76c0,.17-.73.08-.64.25l1.55-.25c-.18-.08-.37-.08-.55-.08s-.27,0-.37.08Zm4.57,2.79c0,.08.09,1.52.37,1.35v-.68c.18.25.27.76.55.93,0-.34-.55-1.35-.91-1.61Zm9.97,10.33c.09-.42.46-.68.64-1.02-.37.17-1.1,1.27-1.1,1.78,0-.08-.64.85-.91,1.19.27-.34.82-1.35.82-1.86,0-.08,0-.17-.09-.25-.55.59-.82,2.12-1.37,2.12-.18.42-.55.68-.55,1.19.09,0,.27-.17.46-.25-.18.08-.18.34-.37.51.37-.17.46-.85,1.01-.85,0-.34.91-1.19,1.01-1.19.09-.17.37-.34.37-.68,0-.17.09-.34.09-.68Zm1.46-2.54c-.09-.34,1.1-1.61,1.28-2.03-.82.85-2.38,2.03-2.38,3.56.09-.08.37-.68.55-.68.09,0,.09.08.09.25.18-.42.09-.76.46-1.1Z"/>
        <path d="m408.02,35.91c-4.11,3.13-9.23,5.08-13.53,7.88-.46,4.66-4.21,10.5-9.05,12.45.37-.34.18-.25.37-.42-.73.34-1.37.85-2.83.85.27,0,.91-.25.82-.42-.27.25-1.92.34-2.83.34-2.19,0-3.93-1.44-4.3-3.22,0-.17-.09-.76-.18-.85,1.19-4.57,6.77-8.38,9.23-10.08l.64-.42c.09-2.37.37-4.83.37-7.2,0-.85,0-1.69-.09-2.46-3.02,3.64-7.13,10.84-10.06,10.84-.91,0-1.1-.59-1.1-1.52,0-.42.18-.93.55-1.44,3.2-4.15,7.5-11.01,11.43-16.09.64-.85,2.19-2.2,3.57-2.2,1.46,0,3.84,1.52,3.84,2.71,0,.76-.82,1.44-.82,1.69.09.93.18,2.2.18,3.47,0,1.52.09,3.22.09,5.25,0,1.02,0,2.03-.09,3.22,4.57-2.79,9.42-4.91,13.17-6.94.27.08.37.25.46.34.18,0,.27-.17.55-.17l-.82,1.19c.09.08.18.34.18.34,0,0-.18.25-.37.25,0,.08.27.25.37.25,0,0-.09.08-.18.25,0-.08-.37.76-.73,1.02.55-.17,1.19-.76,1.55-1.1,0,.51-.73.76-.73,1.35-.46,0-.55.51-.82.68.37-.17.82-.68,1.37-.85-.09.25-.46.93-.91.93,0,.42-.18.25-.18.59.27,0,.82-.68,1.37-1.19-.18.25-.46.59-.46.68Zm-29.35,14.14c.09,0,.27,0,.27-.34-.09.08-.27.17-.27.34Zm.37-.51c.37-.25.91-.68.91-1.1-1.01,1.1-.91,1.1-.91,1.1Zm1.19-1.19c.37,0,.37-.17.37-.59l-.37.59Zm.64-.59c.09,0,.37-.17.27-.25.27,0,.46-.59.46-.68.18,0,.18-.17.18-.17-.46.25-1.01,1.02-.91,1.1Zm5.12.93c-2.93,1.44-4.75,4.74-4.75,4.91,0,.42.27.51.64.51,2.38,0,4.11-3.47,4.11-5.42Zm-3.75-2.37c0-.17.27-.34.37-.42-.18.08-.37.25-.37.42Zm.55-.34c.55-.25,1.01-1.19.91-1.19,0,0-.18.17-.37.59-.27.08-.55.08-.55.59Zm.82-.42c.46-.34,1.01-.59,1.28-1.19-.55.17-1.01.85-1.28,1.19Z"/>
        <path d="m453.55,3.3c3.93,0,5.12,2.96,5.12,6.35,0,2.37-1.92,8.81-2.01,8.98-.91,2.62-7.04,28.54-10.42,42.85,0,.08-.27.17-.27.42,0,.08.27-.08.27-.08,0,3.64-2.19,7.71-2.38,7.88-.18,0-.91-1.02-1.74-1.27,0,0-.09.51-.46.51-.09,0-.09-.08-.27-.08-.09,0-.18,0-.27.08-.09-.08-.27-.17-.27-.51-.27.08-.27.34-.55.51-.27,0-.09-.34-.46-.34-.09,0-.27.08-.55.08,0-.08.09-.25.09-.42,0-.08-.09-.17-.18-.17-.27,0-.46.34-.64.34-.09,0-1.19-.93-2.56-.93-.46,0-1.01.34-1.37.34-.27,0-.18-.85-.37-.85s-.46.34-.64.34-.82-.93-.82-3.05c0-.76.09-1.61.27-2.63,2.1-17.61,8.23-36.5,12.07-49.29-1.74,3.56-7.59,20.75-13.62,25.58-1.1,1.69-3.93,2.2-7.31,2.2-6.31,0-7.41-9.74-7.41-13.47,0-7.37,2.47-22.53,10.51-26.42.37-.17.82-.25,1.19-.25,3.29,0,5.03,2.79,5.03,4.23,0,.93-.18,1.86-.46,2.71-2.19,5.67-5.94,15.41-5.94,22.78,0,1.95.18,5.17,1.46,5.42,6.22-8.55,9.05-18.72,14.54-28.12,3.47-4.66,4.66-2.71,9.6-3.73h.82Zm-17.37,48.86c-.27.08-.37.17-.37.34,0,.08.09.17.09.25.27-.08.18-.34.27-.59Zm.18-3.47c-.27,0-.27.25-.27.51.09-.08.27-.17.27-.51Zm.91-.85c0-.51-.55-1.1-.55-.93,0,.08.18,1.27.37,1.35.18-.08.18-.25.18-.42Zm.55-1.86c.09,0,.73-1.02.73-1.1-.46,0-.73,1.02-.73,1.1Zm.82-6.01l-.37-.17c-.09,0-.18.08-.18.42.27,0,.55-.08.55-.25Zm6.58,22.7l-.27-.08c0,.08.09.17.09.51-.09.08-.09.17-.09.34,0,.08,0,.25.09.25,0-.34.18-.59.18-1.02Zm1.74-7.03c0-.25-.09-.25-.09-.59,0-.08-.09-.17-.09-.25-.09.17-.55.76-.55,1.27.09.08.09.17.09.34.18,0,.27,0,.27-.25l.37-.51Zm.27-2.12c-.27,0-.55-.51-.55-.42,0,.17.37.76.37.76.18-.08.18-.34.18-.34Zm.55-2.2c-.09.42-.46.76-.46,1.27.27-.25.37-.93.46-1.27Z"/>
        <path d="m488.2,40.56c-.27.34-.27,1.19-.64,1.1-.18.25-.46,1.27-.82,1.27-.92.51-.73,2.79-1.1,3.13-1.46,1.69-5.94,6.94-12.89,8.38-.46.17-1.01.17-1.28.17-.91,0-1.28-.51-2.1-.51-.27,0-.82-.17-1.1-.17-.09,0,0,.17-.18.17-.09-.17-.27-.17-.55-.17h-.37c-.55-.25-1.19-.34-1.74-.51.73.68,1.92.76,3.02.76,0,0,.73.08,1.01.25-.92,0-2.56-.17-3.75-.51.18.17.64.25.73.42-.64-.17-.91-.08-1.19-.25-.18-.17-1.74-.85-1.83-.85v.42c-3.38-2.79-4.94-6.35-4.94-10.08,0-7.2,7.59-17.78,16.55-17.78,1.74,0,1.74.93,3.02,1.52,0-.08-.09-.17-.09-.25.09-.08.18-.08.27-.08.55,0,.46,1.27.64,1.69.18.68,1.19,1.44,1.19,3.64,0,2.71-2.01,8.3-10.51,8.3-1.28,0-2.56-.17-3.57-.34-.37,1.02-.55,1.95-.55,2.71,0,3.3,2.47,5,5.94,5,8.59,0,17.65-12.45,19.75-15.41l.73-.85c.27-.25.46-.34.55-.34.27,0,.27.42.73.59-.18.17-.46.59-.46.85v.34c0,.34-.09.93-.55,1.35,0-.17.09-.51.09-.59-.18,0-.18.25-1.83,3.3.82-.59,1.55-2.03,1.55-1.86,0,.25-.27.34-.27.59.64-.59.73-1.19,1.28-2.46.09,0,.09.25.09.25,0,.42.09.25.09.51,0,.34-.18.68-.18.93,0,2.03-3.93,6.94-6.67,10.08,0,0-.09-.17-.09-.42,0-.51.18-1.44.46-1.61,0,0,.27.08.27.25,1.37-1.69,3.29-4.15,4.11-5.76l.55-.51c.18-.17.27-.68.37-.93-.37.42-1.55,1.35-1.55,2.03,0,.51-.82.68-1.83,2.46-.09,0-.18-.25-.18-.34-.09,0-.18.08-.18.08Zm-17.28-9.4c-1.55,1.61-3.02,3.64-3.75,5.59,1.37-.93,7.59-3.64,8.5-7.11-.27-.08-.55-.08-.91-.08-1.46,0-2.83.85-3.84,1.61Zm2.1-4.49c-1.01.17-1.83.68-2.38,1.19,1.19-.76,2.74-1.35,4.3-1.35-.18-.08-.27-.08-.37-.08-.18.08-.27.08-.46.08-.09-.08-.18-.08-.27-.08-.27,0-.82.17-.82.25Zm1.28.17h-.46c-.18,0-.27-.08-.27-.17-.27.08-1.55.42-2.01.85.55-.08,1.1-.25,1.55-.51.27,0,.46.08.64.08s.55-.17.55-.25Zm-.18-.76c0,.17-.73.08-.64.25l1.55-.25c-.18-.08-.37-.08-.55-.08s-.27,0-.37.08Zm4.57,2.79c0,.08.09,1.52.37,1.35v-.68c.18.25.27.76.55.93,0-.34-.55-1.35-.91-1.61Zm9.97,10.33c.09-.42.46-.68.64-1.02-.37.17-1.1,1.27-1.1,1.78,0-.08-.64.85-.92,1.19.27-.34.82-1.35.82-1.86,0-.08,0-.17-.09-.25-.55.59-.82,2.12-1.37,2.12-.18.42-.55.68-.55,1.19.09,0,.27-.17.46-.25-.18.08-.18.34-.37.51.37-.17.46-.85,1.01-.85,0-.34.91-1.19,1.01-1.19.09-.17.37-.34.37-.68,0-.17.09-.34.09-.68Zm1.46-2.54c-.09-.34,1.1-1.61,1.28-2.03-.82.85-2.38,2.03-2.38,3.56.09-.08.37-.68.55-.68.09,0,.09.08.09.25.18-.42.09-.76.46-1.1Z"/>
        <path d="m530.62,32.43c.27,0,1,1.27,1,1.52.09.34.09.59.09.85,0,.59-.18,1.19-.46,1.86-2.56,4.66-9.69,15.07-16.46,15.41h-.73c-6.49,0-9.14-3.22-9.14-9.99v-.42c-3.75,6.18-7.77,11.18-12.71,11.18-2.1,0-5.21-2.71-6.03-4.66-.46-1.1-.64-2.71-.64-4.4,0-6.27,2.38-14.57,5.3-17.11,1.74-1.52,3.75-1.86,5.58-1.86.37.93,3.29,1.35,3.29,2.37,0,1.1-.46,2.37-.73,2.88-.27.76-3.66,11.18-3.66,14.9,0,.85.18,1.35.55,1.35.18,0,.27,0,.37-.08,3.57-3.56,11.25-16.77,13.26-18.46.82-.68,1.65-1.1,2.74-1.1h.82c1.37,0,3.84.08,3.84,1.78,0,.17,0,.34-.09.59-.46,1.44-2.65,11.09-2.65,16.01,0,2.46.27,3.98,1.01,3.98,2.29,0,9.78-9.48,13.44-14.48.46-.76,1.37-2.12,2.01-2.12Z"/>
        <path d="m548.08,31.76c0,.34-4.21,3.9-4.21,4.4,1.92,3.05,5.85,8.55,5.85,13.13,0,2.88-1.55,5.08-4.66,5.25-.37.25-3.93,2.12-4.11,1.95,0-.68,1.01-.93,1.01-2.46,0-1.44-2.83-8.55-5.03-10.76-1.92,1.86-4.75,7.28-5.03,7.28,0-.17-.09-.42-.09-.42,0,.42-1.92,1.78-1.92,1.78-.09,0-.18-.08-.37-.34-.27.25-.27.59-.55.59,0,0,0-.34-.27-.59-.27.25-.46.08-.73.42.09.08.09.17.09.25,0,.17-.09.42-.09.42-.18,0-.27-.25-.46-.25-.27,0-.27.76-.55.76-1.19,0-2.38-.59-2.38-1.86,0-3.64,3.75-8.55,8.59-13.38-1.19-2.2-4.21-4.57-4.39-7.37-.37-.34-.55-.76-.55-1.19,0-2.79,4.21-2.96,6.22-2.96,4.3,0,4.02,3.05,6.22,5.08,3.75-2.46,7.04-4.49,10.88-5,.46.08,1.1.42,1.1.59,0,.08-.09.17-.46.17,0-.08-1.92,2.46-4.11,4.49Z"/>
      </g>
      <g>
        <path class="cls-4" d="m385.27,138.74l-12.91-1.38c-.23,4.34-5.14,11.01-8.57,13.65,0,0-6.29,3.18-13.14,3.18-7.89-1.48-19.89-6.14-26.74-11.43-4.34-6.56-7.09-14.08-7.09-22.02v-14.08c0-13.87,9.37-23.08,20.34-31.01,6.51-2.22,18.17-1.91,24.69-1.91,5.03,0,9.83,1.38,14.63,2.12l3.09,11.33-4.11,10.06c-7.09-2.75-10.29-3.6-17.94-4.02-13.71,2.22-20.46,15.35-21.03,28.16-.11,2.86,2.74,11.43,3.09,12.91l7.43,5.61c2.74-1.16,6.17-4.34,7.43-6.88l-5.37-6.25,4.69-11.96h12.91c4.34,0,8.57,1.27,12.91,1.91l6.4,8.47-.69,13.55Zm-11.54-61.29c-4.11-.42-8.34-1.27-12.46-1.27-5.37,0-11.89-.42-20.92,1.27-17.49,7.83-25.14,26.67-20.69,44.67.57-15.98,11.89-42.98,36.46-42.13,6.86.21,13.71,1.91,20,4.45l-2.4-6.99Zm-16.91,56.52l-7.43,6.88,7.43-1.27,4-4.45-4-1.16Zm-2.63-15.98l-3.09,8.79,4.8,4.55,3.77-6.77-5.49-6.56Zm24.34.32c-3.77-.32-8.46-1.38-12.23-1.38l-10.4-.11,5.37,6.77,21.6,1.06-4.34-6.35Z"/>
        <path class="cls-4" d="m434.07,120.43c-3.09-2.01-5.6-1.38-9.37-1.38-4.46.11-6.63.74-8,7.73l-.69,14.4.91,13.65-13.37-1.69-8.91-6.99,1.03-21.28-2.06-25.19,10.29-4.55,6.74,7.73c3.54-1.48,5.37-2.86,9.14-3.7,4-.85,6.4-1.06,10.4-.64l6.51,9.84-2.63,12.07Zm-31.43-12.6l-6.4-4.98,1.14,9.95v10.16l-.34,11.54-.11,11.11,5.49,4.66-.46-14.61.69-14.18v-13.65Zm.91-10.27l-6.97,3.07,6.97,5.29,5.83-1.59-5.83-6.77Zm25.6,3.07c-3.77-.42-6.06-.21-9.71.95-3.54,1.06-5.14,2.12-8.11,4.45l.69,7.3c3.09-2.96,5.6-4.45,9.94-5.5,4.57-1.06,7.54-.95,12.12.53l-4.92-7.73Z"/>
        <path class="cls-4" d="m486.76,154.19l-5.71-3.18c-4.11,2.65-9.26,4.34-14.29,4.34-14.74,0-24.57-10.59-24.57-23.82,0-14.82,8.69-29.53,26.4-29.53,5.14,0,9.26,1.69,13.94,3.28l1.26-5.93,10.51.42,4.57,8.68c-.11,6.77-.23,13.55-.23,20.32,0,8.47.46,16.94.69,25.4h-12.57Zm-5.26-47s-13.71-7.41-26.74,2.33c-6.4,4.87-8.46,8.79-10.06,16.3-2.06,9.95,3.09,18.42,3.09,18.42,0,0-.69-11.22,2.4-19.9,2.86-7.94,8.34-12.17,16.46-15.24,5.03-1.91,18.06,3.18,18.06,3.18l-3.2-5.08Zm-18.51,15.24c-4.34,4.13-5.26,6.88-5.26,11.64s2.63,11.33,6.97,9.63c1.71-.64,3.54-1.48,4.8-2.65,2.74-2.33,3.89-5.19,3.89-5.19l.57-17.47s-5.71-1.06-10.97,4.02Zm11.09,16.19s-2.06,2.75-3.09,4.13c-1.14,1.48-6.97,3.28-5.14,3.07,2.17-.21,3.31.32,6.74-.74,1.49-.42,5.14-2.54,5.14-2.54l-3.66-3.92Zm1.94-19.48l-.46,8.89-.23,8.68,4.11,4.76.11-19.48-3.54-2.86Zm9.37,28.79l-2.51,2.22,2.63,1.27-.11-3.49Zm-.57-46.04l-1.03,5.29,4.46,7.41.11-6.03-3.54-6.67Zm8.46-.64h-6.51l3.54,6.35,5.6.21-2.63-6.56Z"/>
        <path class="cls-4" d="m560.93,152.08l-9.03,1.06-7.66-3.92.34-15.98c-.69-4.45-3.66-11.64-9.03-11.85-6.51-.21-9.14,5.19-10.29,11.85-1.26,6.77-.91,14.82-1.6,19.9h-7.77l-6.86-4.87,1.03-22.44-.23-11.01-1.6-10.16,9.14-3.07,5.03,5.29c3.66-2.86,9.94-3.18,16-2.43,4.34.42,5.26.85,10.63,4.02l7.31,8.47c2.29,5.19,3.77,8.89,4.11,14.18.23,3.81.69,6.99.92,10.16.23,3.28.23,6.56-.46,10.8Zm-45.83-42.34l-4.46-2.86,1.49,11.75-.23,11.96-1.14,15.88,4,3.28v-18.31l.57-15.88-.23-5.82Zm2.86-4.76c-.8-.85-1.26-1.38-1.26-1.38-.23,0-2.4.53-5.26,1.38l5.6,3.92,3.66-1.06c-1.03-1.06-2.06-2.12-2.74-2.86Zm19.43,1.27c-5.26-.85-9.49-.11-14.4,2.96l.46,4.13c4.23-2.65,7.31-3.6,12.46-3.81,6.29-.32,10.51,1.06,15.66,4.45-3.89-4.66-7.77-6.56-14.17-7.73Zm12.46,29c-.12-4.45-.23-6.14-1.6-9.21-1.26-2.54-4.34-4.87-7.77-4.45,2.06,1.48,3.66,2.43,4.46,5.08.8,2.75,1.6,4.76,1.14,7.83l-.34,13.76,5.26,2.86c-.34-7.41-.91-8.68-1.14-15.88Z"/>
        <path class="cls-4" d="m609.5,96.61l-.69,26.04-.46,28.69c-8,2.75-14.17,3.6-22.29.64-8.8-3.39-14.06-8.36-16-16.94-1.94-8.57,1.03-19.37,7.09-26.04,4-4.23,7.89-5.08,12.8-8.15l.57-12.17,1.94-12.07,11.09-2.43,6.63,8.15-.69,14.29Zm-18.74,6.56c-4.69,1.59-7.43,3.28-10.97,6.77-3.77,3.71-5.83,6.56-6.97,11.64-1.14,5.93-1.37,16.83,3.43,21.49-1.83-6.77-2.74-18.31,1.6-24.13,2.06-2.75,3.77-4.02,6.86-5.72,3.77-2.12,8-2.54,12.46-2.75l-6.4-7.3Zm-4.91,21.81c-1.14,1.16-2.51,8.57-2.51,8.79s-.46,2.75,0,4.66l.34,1.8,4.23-3.28c.11-2.75,1.03-13.02.8-13.44-.23-.42-2.06.42-2.86,1.48Zm2.51,14.71l-3.09,2.33s2.29,1.91,4.12,2.54c1.94.74,5.49.74,5.49.74l-6.51-5.61Zm7.66-16.41h-5.37l-.34,14.29,5.71,6.25v-20.53Zm-2.29-42.02l-1.14,9-.69,11.01,6.74,8.15.91-23.82-5.83-4.34Zm9.26-4.98l-8.69,2.22,6.4,5.29,6.51-1.8-4.23-5.72Z"/>
        <path class="cls-4" d="m646.64,155.78c-6.06,0-20.8-6.88-25.94-10.16l-5.26-9.63,8.23-7.41c7.66,5.61,11.09,9.53,20.8,9.53,3.09,0,5.83-.85,8.34-2.33-2.97-2.33-8-3.28-11.66-4.76-10.17-3.92-10.74-9-10.74-18.63,0-16.09,12.23-15.14,25.26-16.3l6.63,11.64-4.92,11.96c-2.86-1.8-4.8-4.13-8.57-4.13-2.86,0-6.86.21-6.86,3.7,0,4.45,23.43,6.03,23.43,20.96,0,8.89-9.71,15.56-18.74,15.56Zm-24-24.24l-4.69,4.76,3.77,7.09,3.89-7.73-2.97-4.13Zm31.2,6.77c-3.31,1.8-6.06,2.33-9.83,2.33-9.14,0-13.03-5.4-19.66-9.84,1.14,1.91,2.17,3.92,3.43,5.72,2.06,3.28,13.37,9.63,17.49,9.63,2.63,0,9.49-1.48,9.49-4.66,0-1.27-.46-2.01-.92-3.18Zm.69-40.33s-8.23-.42-15.43,2.12c-6.17,2.22-6.51,8.36-7.09,16.83,2.86-4.98,2.51-11.22,14.51-13.44,3.66-.64,8.92,1.27,12.34,2.43l-4.34-7.94Z"/>
        <path class="cls-4" d="m357.16,249.36c-11.77.11-28.23-6.88-31.2-12.17-5.6-9.74-6.86-17.57-6.86-28.37,0-9.1,3.31-19.37,8.34-27.94,8.11-8.04,11.77-10.16,22.29-10.16,28,0,30.97,22.86,30.97,42.76,0,12.49-5.71,35.67-23.54,35.88Zm-7.31-76.53c-22.51.32-29.03,22.65-28,41.92.46,9.53,2.17,16.09,7.66,24.24l2.97.64c-3.2-7.09-5.94-15.14-5.94-25.09,0-20.22,4.23-35.67,29.6-35.67,5.71,0,9.71,1.69,14.97,2.96l.23.63c-.69-3.7-10.17-9.84-21.49-9.63Zm-.11,16.3c-12.34.32-11.77,19.37-11.77,27.42,0,5.5.69,20.32,9.14,20.32,10.74,0,11.89-24.66,11.89-31.97,0-5.61-1.71-15.98-9.26-15.77Zm7.31.64s4.11,9.42,4.11,11.64l-.11,9c0,10.16-1.94,20.75-8.8,27.73,5.37-1.8,10.17-5.19,12-10.37,1.49-4.13,2.74-19.9,2.97-22.55,1.14-12.81-10.17-15.45-10.17-15.45Z"/>
        <path class="cls-4" d="m439.56,215.06l-6.51,2.12-.23,8.15c-.57,2.96-.57,5.4-.8,7.73-.23,2.43-.69,4.66-2.4,7.2-1.26,2.12-2.63,4.23-4.34,5.93-1.6,1.59-3.54,2.75-6.4,3.18-3.09.42-5.26.32-7.31-.11-2.06-.42-4.11-1.06-6.97-1.8-5.03-1.17-7.09-2.33-10.4-5.5-4.11-4.02-5.49-7.83-5.6-13.23-.11-13.76.57-20.22,1.83-31.86l13.49-1.48,5.71,9.95-1.71,22.12c-.23,4.02.34,4.45,0,6.77-.11,1.8,1.26,1.91,2.51.63,1.37-1.27,2.97-4.13,3.43-8.79.69-5.93.23-11.43,1.26-17.25l3.89-12.17h15.09l5.71,10.16-.23,8.26Zm-43.54,13.12c-.34-4.87.46-7.51.46-12.38l-.23-10.8-4.69-4.23v15.24c0,3.49-.23,6.14-.23,8.79s.11,5.19.69,8.15c.91,4.34,2.63,7.3,6.74,9.95-1.49-5.82-2.4-9-2.74-14.71Zm6.86-30.48l-10.29.85,6.17,6.35,8.8-.42-4.69-6.77Zm17.6,1.69c-.8,4.55-1.94,8.04-2.86,11.43-1.03,3.39-1.71,6.67-1.49,10.48.34,5.4-.11,8.36-1.26,10.48-.57,1.06-1.26,2.01-2.17,2.86-.8.95-1.49,2.33-2.74,3.49,5.83,3.07,8.34.64,9.94-3.07.8-1.8,1.26-4.13,1.49-6.35.34-2.33.46-4.66.69-6.67.34-2.96.46-5.29.91-7.73.34-2.33.8-4.66,1.83-7.62l-4.34-7.3Zm12.57-.85l-10.4.21,4.23,6.99,10.4.63-4.23-7.83Z"/>
        <path class="cls-4" d="m508.36,210.72l-12.46-.42-10.97,18.31-13.94,19.58-16.57-13.23-7.77-46.79,15.09-3.18,5.26,9.84c1.03,3.49,2.4,7.94,3.43,11.54l1.26,4.45.46,1.27.11.32v.11c0,.11.11,0,.11,0,.11-.11,1.14-2.12,2.51-4.66,1.37-2.54,2.97-5.61,4.11-7.62l6.74-12.49,19.2-.74,6.17,11.33-2.74,12.38Zm-48.92,4.97l-3.09-18.63-7.54-7.2,4.57,26.89,3.31,17.68,10.63,9.1-7.89-27.84Zm1.14-28.9l-9.49,2.43,6.86,6.88,5.71-2.43-3.08-6.88Zm25.26,6.03l-13.14,22.86,2.63,7.52,15.43-24.45-4.92-5.93Zm18.29-3.6l-17.49.63,7.31,8.26h14.29l-4.11-8.89Z"/>
        <path class="cls-4" d="m559.1,220.67l-23.43-.21-.34,7.52,1.49,3.49,2.86,3.39c4.69.95,8.34.95,13.03-1.06,4.92-2.01,7.31-4.13,9.83-8.57l10.17.85,3.77,7.2c-3.89,4.45-4.8,8.15-9.83,11.33-6.06,3.71-10.97,4.23-18.29,4.02-9.49-.42-15.77-2.65-22.51-8.89-6.51-6.03-9.94-11.33-9.6-19.79.46-8.26,4.11-13.76,10.86-18.63,6.4-4.66,7.66-5.5,14.63-7.41,6.06-1.59,12.69-2.65,20.69-.63,4.91,1.27,5.03.95,12,9,4.69,5.29,5.6,10.27,5.26,17.36l-20.57,1.06Zm3.66-25.19c-7.54-1.69-12.46-1.59-19.89.42-8.23,2.33-13.26,4.76-18.17,11.43-4.12,5.5-6.06,9.84-5.26,16.62.8,6.56,2.97,10.58,8.46,14.92-2.17-5.82-5.83-8.57-5.37-15.14.46-6.35,2.29-10.37,6.51-15.35,4.91-5.93,10.29-8.15,18.17-9,8.57-.85,13.49,0,22.06,2.01l-6.51-5.93Zm-8.46,15.67l-12.12-.42-1.71.74-.23,1.06,10.17.32h6.4l-2.51-1.69Zm8.57,17.36c-2.29,3.49-4.46,5.29-8.46,7.2-4,2.01-6.97,1.48-11.54,2.43,4.23,1.8,7.31,2.01,11.89,1.06,4.69-1.06,6.4-3.81,10.4-6.14l-2.29-4.55Zm-8.8-20.64s-3.31-.53-5.49-.21c-1.6.21-4,1.27-4,1.27h9.83l-.34-1.06Zm6.4,2.12l-3.43-1.48-.34,2.01,1.94,2.12h4.57l-2.74-2.65Zm11.66,18l-7.77-1.17,3.66,5.93h6.4l-2.29-4.76Z"/>
        <path class="cls-4" d="m628.24,215.7c-3.09-2.01-5.6-1.38-9.37-1.38-4.46.11-6.63.74-8,7.73l-.69,14.4.92,13.65-13.37-1.69-8.91-6.99,1.03-21.28-2.06-25.19,10.29-4.55,6.74,7.73c3.54-1.48,5.37-2.86,9.14-3.71,4-.85,6.4-1.06,10.4-.63l6.51,9.84-2.63,12.07Zm-31.43-12.6l-6.4-4.97,1.14,9.95v10.16l-.34,11.54-.11,11.11,5.49,4.66-.46-14.61.69-14.18v-13.65Zm.91-10.27l-6.97,3.07,6.97,5.29,5.83-1.59-5.83-6.77Zm25.6,3.07c-3.77-.42-6.06-.21-9.71.95-3.54,1.06-5.14,2.12-8.11,4.45l.69,7.3c3.09-2.96,5.6-4.45,9.94-5.5,4.57-1.06,7.54-.95,12.11.53l-4.91-7.73Z"/>
        <path class="cls-4" d="m679.79,247.98l-11.66,1.16c-4.69-.32-8,.63-12.11-1.38-4.69-2.33-8.34-4.76-8.46-9.84-.34-8.79-.46-15.56.57-24.45l-7.2-.85-7.31-7.83,1.83-8.15,15.43-.53,2.17-17.25,11.43-.42,5.03,7.52v10.06l5.71,1.69,3.89,6.25v8.47l-10.29.74v16.09h2.17l9.14,8.68-.34,10.06Zm-43.09-48.8l-1.03,4.76,5.83,6.25.57-5.19-5.37-5.82Zm13.6-1.27l-11.89.32,4.57,5.19,12.34.63-5.03-6.14Zm4.34,36.31c-.57-7.73.11-13.13.23-20.54l-4.57-.21-.57,17.68c-.11,2.65-.46,4.34.34,6.99,1.26,3.49,2.63,6.14,6.29,7.62-1.26-4.23-1.26-7.41-1.71-11.54Zm-.69-51.34l-1.49,14.92,5.14,6.14.8-15.98-4.46-5.08Zm9.37-3.18l-8.23.64,4.92,5.93,7.54.21-4.23-6.77Zm8.23,51.76l-2.86-.21c-.46,1.8-1.26,5.72,1.26,6.03,3.31.32,3.77,0,7.31.11l-5.71-5.93Zm2.51-32.6l-4.92-1.06.34,4.76,6.63.32-2.06-4.02Z"/>
        <path class="cls-4" d="m715.56,251.05c-6.06,0-20.8-6.88-25.94-10.16l-5.26-9.63,8.23-7.41c7.66,5.61,11.09,9.53,20.8,9.53,3.09,0,5.83-.85,8.34-2.33-2.97-2.33-8-3.28-11.66-4.76-10.17-3.92-10.74-9-10.74-18.63,0-16.09,12.23-15.14,25.26-16.3l6.63,11.64-4.92,11.96c-2.86-1.8-4.8-4.13-8.57-4.13-2.86,0-6.86.21-6.86,3.71,0,4.45,23.43,6.03,23.43,20.96,0,8.89-9.71,15.56-18.74,15.56Zm-24-24.24l-4.69,4.76,3.77,7.09,3.89-7.73-2.97-4.13Zm31.2,6.77c-3.31,1.8-6.06,2.33-9.83,2.33-9.14,0-13.03-5.4-19.66-9.84,1.14,1.91,2.17,3.92,3.43,5.72,2.06,3.28,13.37,9.63,17.49,9.63,2.63,0,9.49-1.48,9.49-4.66,0-1.27-.46-2.01-.92-3.18Zm.69-40.33s-8.23-.42-15.43,2.12c-6.17,2.22-6.51,8.36-7.09,16.83,2.86-4.98,2.51-11.22,14.51-13.44,3.66-.63,8.92,1.27,12.34,2.43l-4.34-7.94Z"/>
      </g>
      <rect class="cls-5" x="78.89" y=".47" width="229.25" height="212.35" rx="94.14" ry="94.14"/>
      <line class="cls-6" x1="285.5" y1=".21" x2="285.5" y2="378.21"/>
      <line class="cls-6" y1="274.21" x2="736.5" y2="274.21"/>
    </g>
  </g>
</svg>