<?xml version="1.0" encoding="UTF-8"?>
<svg id="Calque_2" data-name="Calque 2" xmlns="http://www.w3.org/2000/svg" viewBox="0 0 286 194.3">
  <defs>
    <style>
      .cls-1 {
        fill: none;
      }

      .cls-1, .cls-2 {
        stroke: #000;
        stroke-miterlimit: 10;
        stroke-width: 20px;
      }
    </style>
  </defs>
  <g id="jumelles">
    <circle class="cls-1" cx="218" cy="126.3" r="58"/>
    <circle class="cls-1" cx="68" cy="126.3" r="58"/>
    <path class="cls-2" d="m43.69,64.16c2.71-1.1,5.7-1.93,8.62-2.71,6.12-1.63,12.73-2.68,19.27-2.01,8.72.89,16.55,4.55,23.07,8.86l5.23-23.22c1.35-6.01-4.42-11.66-12.89-12.62l-26.62-3.02c-8.48-.96-16.44,3.13-17.8,9.14l-6.59,29.23c2.57-1.21,5.02-2.56,7.69-3.65Z"/>
    <path class="cls-2" d="m63.56,19.67c1.32-.26,2.78-.44,4.2-.6,2.97-.34,6.18-.52,9.34-.21,4.2.41,7.95,1.59,11.05,2.93l2.78-6.45c.72-1.67-2.01-3.37-6.09-3.8l-12.83-1.35c-4.09-.43-7.98.58-8.7,2.24l-3.5,8.11c1.26-.29,2.45-.63,3.76-.88Z"/>
    <path class="cls-2" d="m214.76,17.69c-1.2-.19-2.52-.32-3.82-.44-2.7-.24-5.62-.34-8.49-.05-3.82.39-7.22,1.39-10.04,2.51l-2.55-5.2c-.66-1.34,1.81-2.76,5.52-3.16l11.66-1.25c3.71-.4,7.26.37,7.92,1.71l3.21,6.54c-1.14-.22-2.23-.48-3.42-.67Z"/>
    <path class="cls-2" d="m240.08,68.63c-2.79-1.25-5.87-2.18-8.88-3.06-6.3-1.84-13.11-3.02-19.85-2.27-8.98,1-17.04,5.13-23.76,10l-5.39-26.2c-1.39-6.78,4.55-13.15,13.28-14.24l27.41-3.4c8.73-1.08,16.93,3.53,18.33,10.31l6.78,32.98c-2.65-1.36-5.17-2.89-7.92-4.12Z"/>
  </g>
</svg>