<?xml version="1.0" encoding="UTF-8"?>
<svg id="Calque_2" data-name="Calque 2" xmlns="http://www.w3.org/2000/svg" viewBox="0 0 400.75 206.11">
  <defs>
    <style>
      .cls-1 {
        fill: #e7e7e7;
      }

      .cls-2 {
        fill: #9b9b9b;
      }

      .cls-3 {
        opacity: .21;
      }

      .cls-4 {
        fill: #1d1d1b;
      }
    </style>
  </defs>
  <g id="Calque_1-2" data-name="Calque 1">
    <g>
      <g class="cls-3">
        <rect class="cls-1" x="51.88" y="32.54" width="43.39" height="173.57"/>
        <rect class="cls-1" x="268.83" y="32.54" width="43.39" height="173.57"/>
        <polygon class="cls-1" points="95.27 32.54 182.05 130.17 268.83 32.54 268.83 86.78 182.05 178.99 95.27 86.78 95.27 32.54"/>
        <polygon class="cls-1" points="122.39 0 182.05 70.51 241.71 0 122.39 0"/>
      </g>
      <g>
        <path class="cls-4" d="m77.56,115.66c.94-.27,1.48-.81,1.88-1.34,3.22-3.49,6.45-6.99,9.67-10.48,5.51-5.64,11.15-11.15,17.2-16.12,1.34-1.07,2.69-2.02,4.3-2.55,2.15-.94,3.63.13,3.36,2.55-.13,1.88-.67,3.9-1.34,5.78-1.48,4.7-2.69,9.41-3.63,14.24-.54,3.09-.81,6.18-.27,9.27.54,2.28,1.88,3.49,4.17,4.03,2.69.54,5.51.13,8.2-.27,4.43-.67,8.87-1.48,13.3-2.28.54,0,1.21-.13,1.75-.27.4,0,.67.13.81.54,0,.4-.27.54-.54.54-1.21.27-2.42.54-3.49.67-4.03.67-8.06,1.48-12.09,2.02-2.82.4-5.64.81-8.6.27-2.69-.54-4.3-2.15-4.97-4.84-.54-2.42-.54-4.84-.13-7.39.81-5.51,2.15-10.88,3.9-16.26.54-1.88,1.07-3.76,1.34-5.64.13-.54.27-1.07-.27-1.48s-.94,0-1.34.13c-1.48.67-2.69,1.75-3.9,2.69-8.33,7.26-16.12,15.05-23.38,23.25-1.07,1.07-2.15,2.15-3.22,3.22-.4.54-.94.94-1.48,1.21-1.61.94-2.69.4-2.82-1.48,0-1.48.27-2.96.67-4.43,1.75-7.93,4.3-15.72,6.85-23.38,2.69-7.93,5.78-15.59,8.73-23.38,1.75-4.57,3.36-9.27,4.97-13.84.81-2.02,1.34-4.17,1.61-6.32.13-1.07.4-2.28-.67-2.96-1.07-.81-2.15-.13-3.09.4-2.28,1.07-4.17,2.69-6.05,4.43-5.64,5.24-10.88,11.15-15.86,17.07-15.72,18.41-29.16,38.3-49.05,74.31-4.43,7.12-8.6,14.51-13.17,21.5-1.61,2.42-3.22,4.7-4.97,6.85-.81.94-1.61,1.88-2.69,2.55-1.48.94-2.69.4-3.09-1.34-.27-1.48-.13-2.82,0-4.3.54-3.76,1.61-7.52,2.69-11.15,3.36-11.02,14.51-37.22,19.35-47.57,7.52-16.39,16.12-32.25,26.34-47.17.67-1.07,1.34-2.02,2.15-2.96.27-.54.81-.94,1.34-1.07.67-.13,1.07.13,1.34.54.4.54.27,1.07-.27,1.48-2.55,2.02-4.03,4.84-5.78,7.39-5.78,8.2-10.88,16.93-15.72,25.8-7.66,14.11-13.97,28.76-25.93,59.53-1.48,4.57-2.82,9.27-3.49,13.97-.27,1.34-.27,2.82-.27,4.17,0,.4-.13.81.4.94.27.13.54-.27.81-.54.94-.94,1.75-2.02,2.55-3.09,3.63-4.84,6.72-10.21,9.81-15.45,18.54-34.8,30.91-53.48,44.61-71.35,6.32-8.33,13.17-16.39,20.29-24.19,2.55-2.82,5.11-5.37,7.93-7.93,1.61-1.34,3.22-2.55,4.97-3.63,1.34-.67,2.69-1.21,4.17-1.21,1.61.13,2.55.94,2.82,2.42.13,1.07.13,2.02-.13,2.96-.54,3.9-2.02,7.39-3.22,10.88-3.76,10.62-8.2,20.83-11.69,31.44-2.82,8.06-5.24,16.12-7.12,24.46-.13,1.07-.27,2.15-.54,3.09v1.07Z"/>
        <path class="cls-4" d="m158.72,115.39c-.54.4-1.07.67-1.61,1.07-4.3,3.22-8.6,6.58-13.3,9.41-1.88,1.21-3.9,2.28-6.18,2.69-.67.13-1.34.27-2.02.13-1.48-.13-2.42-1.21-2.55-2.82-.13-1.07,0-2.28.54-3.36,1.75-4.17,4.57-7.52,7.66-10.62.27-.27.67-.54,1.07-.54s.67.13.94.4c.13.27.13.67,0,.94-.27.4-.67.67-1.07,1.07-2.42,2.02-4.43,4.43-6.05,7.12-.67,1.34-1.21,2.55-1.34,4.03s.4,2.02,1.88,1.88c1.07,0,1.88-.54,2.82-.94,2.96-1.34,5.64-3.22,8.2-5.11,3.49-2.55,7.12-5.11,10.62-7.79.67-.4,1.21-.81,1.88-1.21.54-.27,1.21-.54,1.61,0,.54.54.27,1.07-.13,1.61-.67.94-1.48,2.02-2.02,3.09s-1.07,2.15-1.21,3.49c-.27,1.88.54,2.96,2.55,3.09,2.69.13,5.37-.4,7.93-.94,7.52-1.61,15.05-2.96,22.71-3.9,1.48-.27,2.96-.4,4.43-.4.81-.13,1.75,0,2.55.4.27.27.54.54.4.94-.13.4-.54.54-.81.4-.81-.13-1.48-.27-2.28-.27-1.88,0-3.63.27-5.37.54-8.6,1.07-17.2,2.42-25.67,3.9-1.48.27-2.82.27-4.3.13-2.28-.13-3.63-1.88-3.22-4.3.27-1.34.94-2.69,1.34-4.17Z"/>
        <path class="cls-4" d="m215.82,112.98c-3.22.27-6.32.94-9.27,2.28-3.9,1.61-7.52,3.9-10.48,6.85-.81.67-1.48,1.48-2.15,2.28-2.15,2.82-2.02,4.84.54,7.39,1.07,1.07,2.15,2.02,3.22,3.09.67.67,1.21,1.34,1.88,2.02.54.67.67,1.88,1.61,1.88.81.13,1.48-.67,2.15-1.07,12.23-7.12,25.26-12.63,38.57-17.6,1.88-.81,3.9-1.48,5.78-2.15.4-.13.81-.27,1.21-.27.27-.13.4,0,.54.27,0,.27-.13.4-.4.54-.4.27-.81.4-1.21.54-8.47,2.96-16.93,6.05-25.13,9.67-6.72,3.22-13.44,6.58-19.75,10.62-.94.67-1.61,1.21-1.61,2.69.13,1.88-.94,3.36-2.15,4.57-2.02,1.88-4.3,2.96-6.85,3.49-.4.13-.81.13-1.21.13-1.07-.27-1.61-1.07-1.21-2.15.27-.67.81-1.07,1.34-1.61,1.61-1.75,3.63-3.22,5.64-4.7.54-.27,1.07-.67,1.61-1.07,1.21-.81,1.21-.94.54-2.15-.94-1.48-2.02-2.55-3.09-3.63-.94-.94-2.02-1.88-2.96-2.82-2.55-2.55-2.69-5.11-.67-8.06,1.88-2.69,4.43-4.84,7.12-6.72,4.03-2.82,8.47-4.84,13.3-5.64,1.75-.4,3.36-.4,5.11-.27,2.96.27,4.3,2.42,3.49,5.24-.27.67-.67,1.07-1.34.94-.67,0-.94-.54-1.07-1.21,0-.27.13-.54.13-.81.27-1.61.13-1.88-1.34-2.28-.4,0-.67-.13-1.07-.13-.27-.13-.54-.13-.81-.13Zm-15.86,28.76c-2.55,1.21-6.58,4.7-7.12,6.05,3.09-.13,6.45-2.82,7.12-6.05Z"/>
        <path class="cls-4" d="m264.33,118.62c-4.17,0-7.66-.54-10.75-2.69-.54-.4-.94-.4-1.34,0-2.28,2.15-4.43,4.43-5.24,7.66-.81,3.36,1.21,6.05,4.7,6.32,3.49.27,6.85-.13,10.35-.94,9-1.88,18.01-4.43,27.01-6.45,9.67-2.28,19.48-4.17,29.43-5.51,1.48-.13,3.09,0,4.7,0,.27,0,.67,0,.94.13.54.13.94.4.81,1.07-.27.67-.67.27-1.21.13-2.02-.54-4.03-.27-6.05-.13-8.2,1.07-16.39,2.69-24.59,4.3-9.41,2.02-18.81,4.43-28.22,6.72-3.36.81-6.72,1.48-10.08,1.88-1.48.13-2.96.13-4.3-.27-3.63-.81-5.51-3.76-4.7-7.39.27-1.34.81-2.69,1.61-3.76,1.21-1.75,2.69-3.36,4.17-4.84,2.55-2.42,5.78-3.9,8.87-5.51,3.22-1.48,6.58-2.28,10.08-2.55,1.75-.13,3.49.13,5.11.81,2.55,1.07,3.36,3.49,1.88,5.91-.67,1.21-1.61,2.02-2.96,2.69-3.36,1.61-6.85,2.42-10.21,2.42Zm-.67-1.75c2.69,0,5.64-.54,8.33-1.61,1.21-.4,2.28-.94,3.22-1.75,1.75-1.88,1.34-3.76-1.21-4.43-2.15-.67-4.43-.54-6.58-.27-3.9.67-7.39,2.15-10.75,4.03-.27.13-.67.4-.94.54-.67.54-.67,1.07,0,1.61.4.27.81.4,1.21.67,2.15.81,4.3,1.21,6.72,1.21Zm3.9-18.81c-.54,0-.81-.4-.67-.94s.54-.94.81-1.21c1.07-.94,2.15-1.88,3.22-2.82.81-.67,1.61-1.21,2.15-2.15.4-.54.81-.81,1.48-.54.4.13.54.54.67.94,0,.54-.27.94-.81,1.21-2.42.94-4.03,2.96-5.78,4.7-.27.4-.54.81-1.07.81Z"/>
        <path class="cls-4" d="m340.12,118.62c-4.17,0-7.66-.54-10.75-2.69-.54-.4-.94-.4-1.34,0-2.28,2.15-4.43,4.43-5.24,7.66-.81,3.36,1.21,6.05,4.7,6.32,3.49.27,6.85-.13,10.35-.94,9-1.88,18.01-4.43,27.01-6.45,9.67-2.28,19.48-4.17,29.43-5.51,1.48-.13,3.09,0,4.7,0,.27,0,.67,0,.94.13.54.13.94.4.81,1.07-.27.67-.67.27-1.21.13-2.02-.54-4.03-.27-6.05-.13-8.2,1.07-16.39,2.69-24.59,4.3-9.41,2.02-18.81,4.43-28.22,6.72-3.36.81-6.72,1.48-10.08,1.88-1.48.13-2.96.13-4.3-.27-3.63-.81-5.51-3.76-4.7-7.39.27-1.34.81-2.69,1.61-3.76,1.21-1.75,2.69-3.36,4.17-4.84,2.55-2.42,5.78-3.9,8.87-5.51,3.22-1.48,6.58-2.28,10.08-2.55,1.75-.13,3.49.13,5.11.81,2.55,1.07,3.36,3.49,1.88,5.91-.67,1.21-1.61,2.02-2.96,2.69-3.36,1.61-6.85,2.42-10.21,2.42Zm-.67-1.75c2.69,0,5.64-.54,8.33-1.61,1.21-.4,2.28-.94,3.22-1.75,1.75-1.88,1.34-3.76-1.21-4.43-2.15-.67-4.43-.54-6.58-.27-3.9.67-7.39,2.15-10.75,4.03-.27.13-.67.4-.94.54-.67.54-.67,1.07,0,1.61.4.27.81.4,1.21.67,2.15.81,4.3,1.21,6.72,1.21Z"/>
      </g>
      <g>
        <path class="cls-2" d="m247.91,144.95l-13.11,29.42h-2.14l-13.11-29.42h2.35l11.89,26.64,11.89-26.64h2.23Z"/>
        <path class="cls-2" d="m251.07,145.41c0-.92.76-1.72,1.72-1.72s1.72.76,1.72,1.68-.76,1.72-1.72,1.72-1.72-.76-1.72-1.68Zm.67,7.02h2.1v21.94h-2.1v-21.94Z"/>
        <path class="cls-2" d="m273.09,152.26v2.06c-.17,0-.34-.04-.5-.04-4.88,0-7.77,3.24-7.77,8.66v11.43h-2.1v-21.94h2.02v4.79c1.34-3.19,4.24-4.96,8.36-4.96Z"/>
        <path class="cls-2" d="m290.78,172.98c-1.09,1.05-2.86,1.55-4.5,1.55-3.87,0-5.97-2.27-5.97-5.97v-14.33h-4.03v-1.81h4.03v-4.79h2.1v4.79h6.98v1.81h-6.98v14.12c0,2.82,1.39,4.37,4.08,4.37,1.3,0,2.52-.42,3.4-1.22l.88,1.47Z"/>
        <path class="cls-2" d="m315.83,152.43v21.94h-2.02v-4.71c-1.43,3.07-4.41,4.88-8.28,4.88-5.59,0-9.16-3.15-9.16-9.29v-12.82h2.1v12.65c0,4.96,2.65,7.56,7.23,7.56,4.96,0,8.03-3.32,8.03-8.53v-11.68h2.1Z"/>
        <path class="cls-2" d="m343.27,163.9h-18.87c.21,5.21,4.03,8.74,9.29,8.74,2.77,0,5.34-1.01,7.02-3.07l1.22,1.39c-1.93,2.35-4.96,3.57-8.28,3.57-6.64,0-11.3-4.62-11.3-11.14s4.5-11.14,10.51-11.14,10.46,4.54,10.46,11.05c0,.17-.04.38-.04.59Zm-18.83-1.64h16.81c-.29-4.75-3.74-8.15-8.41-8.15s-8.07,3.36-8.41,8.15Z"/>
        <path class="cls-2" d="m349.83,143.18h2.1v31.18h-2.1v-31.18Z"/>
      </g>
    </g>
  </g>
</svg>